<svg width="1000" height="300" viewBox="0 0 1000 300" fill="none" xmlns="http://www.w3.org/2000/svg">
<rect width="1000" height="300" fill="white"/>
<rect x="69" y="107" width="110" height="80" rx="31" fill="#009CD5"/>
<rect x="243" y="107" width="688" height="80" rx="31" fill="#009CD5"/>
<path d="M107.705 153.25V169H103.682V134.091H107.705V146.909H108.045C108.659 145.557 109.58 144.483 110.807 143.688C112.045 142.881 113.693 142.477 115.75 142.477C117.534 142.477 119.097 142.835 120.438 143.551C121.778 144.256 122.818 145.341 123.557 146.807C124.307 148.261 124.682 150.114 124.682 152.364V169H120.659V152.636C120.659 150.557 120.119 148.949 119.04 147.812C117.972 146.665 116.489 146.091 114.591 146.091C113.273 146.091 112.091 146.369 111.045 146.926C110.011 147.483 109.193 148.295 108.591 149.364C108 150.432 107.705 151.727 107.705 153.25ZM142.324 134.091V169H138.097V138.523H137.892L129.369 144.182V139.886L138.097 134.091H142.324Z" fill="white"/>
<path d="M265.773 148.341V146.227C267.67 146.227 268.994 145.83 269.744 145.034C270.506 144.239 270.886 142.909 270.886 141.045V135.591C270.886 134.023 271.034 132.665 271.33 131.517C271.636 130.369 272.131 129.42 272.812 128.67C273.494 127.92 274.403 127.364 275.54 127C276.676 126.636 278.08 126.455 279.75 126.455V129.795C278.432 129.795 277.392 130 276.631 130.409C275.881 130.818 275.347 131.455 275.028 132.318C274.722 133.17 274.568 134.261 274.568 135.591V142.409C274.568 143.295 274.449 144.102 274.21 144.83C273.983 145.557 273.557 146.182 272.932 146.705C272.307 147.227 271.415 147.631 270.256 147.915C269.108 148.199 267.614 148.341 265.773 148.341ZM279.75 170.091C278.08 170.091 276.676 169.909 275.54 169.545C274.403 169.182 273.494 168.625 272.812 167.875C272.131 167.125 271.636 166.176 271.33 165.028C271.034 163.881 270.886 162.523 270.886 160.955V155.5C270.886 153.636 270.506 152.307 269.744 151.511C268.994 150.716 267.67 150.318 265.773 150.318V148.205C267.614 148.205 269.108 148.347 270.256 148.631C271.415 148.915 272.307 149.318 272.932 149.841C273.557 150.364 273.983 150.989 274.21 151.716C274.449 152.443 274.568 153.25 274.568 154.136V160.955C274.568 162.284 274.722 163.375 275.028 164.227C275.347 165.08 275.881 165.71 276.631 166.119C277.392 166.54 278.432 166.75 279.75 166.75V170.091ZM265.773 150.318V146.227H269.795V150.318H265.773ZM309.209 163.545C306.754 163.545 304.641 162.966 302.868 161.807C301.095 160.648 299.732 159.051 298.777 157.017C297.822 154.983 297.345 152.659 297.345 150.045C297.345 147.386 297.834 145.04 298.811 143.006C299.8 140.96 301.175 139.364 302.936 138.216C304.709 137.057 306.777 136.477 309.141 136.477C310.982 136.477 312.641 136.818 314.118 137.5C315.595 138.182 316.805 139.136 317.749 140.364C318.692 141.591 319.277 143.023 319.504 144.659H315.482C315.175 143.466 314.493 142.409 313.436 141.489C312.391 140.557 310.982 140.091 309.209 140.091C307.641 140.091 306.266 140.5 305.084 141.318C303.913 142.125 302.999 143.267 302.339 144.744C301.692 146.21 301.368 147.932 301.368 149.909C301.368 151.932 301.686 153.693 302.322 155.193C302.97 156.693 303.879 157.858 305.05 158.688C306.232 159.517 307.618 159.932 309.209 159.932C310.254 159.932 311.203 159.75 312.055 159.386C312.908 159.023 313.629 158.5 314.22 157.818C314.811 157.136 315.232 156.318 315.482 155.364H319.504C319.277 156.909 318.714 158.301 317.817 159.54C316.93 160.767 315.754 161.744 314.288 162.472C312.834 163.188 311.141 163.545 309.209 163.545ZM336.021 163.545C333.658 163.545 331.584 162.983 329.8 161.858C328.027 160.733 326.641 159.159 325.641 157.136C324.652 155.114 324.158 152.75 324.158 150.045C324.158 147.318 324.652 144.937 325.641 142.903C326.641 140.869 328.027 139.29 329.8 138.165C331.584 137.04 333.658 136.477 336.021 136.477C338.385 136.477 340.453 137.04 342.226 138.165C344.01 139.29 345.396 140.869 346.385 142.903C347.385 144.937 347.885 147.318 347.885 150.045C347.885 152.75 347.385 155.114 346.385 157.136C345.396 159.159 344.01 160.733 342.226 161.858C340.453 162.983 338.385 163.545 336.021 163.545ZM336.021 159.932C337.817 159.932 339.294 159.472 340.453 158.551C341.612 157.631 342.47 156.42 343.027 154.92C343.584 153.42 343.862 151.795 343.862 150.045C343.862 148.295 343.584 146.665 343.027 145.153C342.47 143.642 341.612 142.42 340.453 141.489C339.294 140.557 337.817 140.091 336.021 140.091C334.226 140.091 332.749 140.557 331.589 141.489C330.43 142.42 329.572 143.642 329.016 145.153C328.459 146.665 328.18 148.295 328.18 150.045C328.18 151.795 328.459 153.42 329.016 154.92C329.572 156.42 330.43 157.631 331.589 158.551C332.749 159.472 334.226 159.932 336.021 159.932ZM358.048 128.091V163H354.026V128.091H358.048ZM376.053 163.545C373.689 163.545 371.615 162.983 369.831 161.858C368.058 160.733 366.672 159.159 365.672 157.136C364.683 155.114 364.189 152.75 364.189 150.045C364.189 147.318 364.683 144.937 365.672 142.903C366.672 140.869 368.058 139.29 369.831 138.165C371.615 137.04 373.689 136.477 376.053 136.477C378.416 136.477 380.484 137.04 382.257 138.165C384.041 139.29 385.428 140.869 386.416 142.903C387.416 144.937 387.916 147.318 387.916 150.045C387.916 152.75 387.416 155.114 386.416 157.136C385.428 159.159 384.041 160.733 382.257 161.858C380.484 162.983 378.416 163.545 376.053 163.545ZM376.053 159.932C377.848 159.932 379.325 159.472 380.484 158.551C381.643 157.631 382.501 156.42 383.058 154.92C383.615 153.42 383.893 151.795 383.893 150.045C383.893 148.295 383.615 146.665 383.058 145.153C382.501 143.642 381.643 142.42 380.484 141.489C379.325 140.557 377.848 140.091 376.053 140.091C374.257 140.091 372.78 140.557 371.621 141.489C370.462 142.42 369.604 143.642 369.047 145.153C368.49 146.665 368.212 148.295 368.212 150.045C368.212 151.795 368.49 153.42 369.047 154.92C369.604 156.42 370.462 157.631 371.621 158.551C372.78 159.472 374.257 159.932 376.053 159.932ZM394.057 163V136.818H397.943V140.773H398.216C398.693 139.477 399.557 138.426 400.807 137.619C402.057 136.812 403.466 136.409 405.034 136.409C405.33 136.409 405.699 136.415 406.142 136.426C406.585 136.437 406.92 136.455 407.148 136.477V140.568C407.011 140.534 406.699 140.483 406.21 140.415C405.733 140.335 405.227 140.295 404.693 140.295C403.42 140.295 402.284 140.562 401.284 141.097C400.295 141.619 399.511 142.347 398.932 143.278C398.364 144.199 398.08 145.25 398.08 146.432V163H394.057ZM414.848 163.273C414.007 163.273 413.286 162.972 412.683 162.369C412.081 161.767 411.78 161.045 411.78 160.205C411.78 159.364 412.081 158.642 412.683 158.04C413.286 157.437 414.007 157.136 414.848 157.136C415.689 157.136 416.411 157.437 417.013 158.04C417.615 158.642 417.916 159.364 417.916 160.205C417.916 160.761 417.774 161.273 417.49 161.739C417.217 162.205 416.848 162.58 416.382 162.864C415.928 163.136 415.416 163.273 414.848 163.273ZM414.848 143.841C414.007 143.841 413.286 143.54 412.683 142.938C412.081 142.335 411.78 141.614 411.78 140.773C411.78 139.932 412.081 139.21 412.683 138.608C413.286 138.006 414.007 137.705 414.848 137.705C415.689 137.705 416.411 138.006 417.013 138.608C417.615 139.21 417.916 139.932 417.916 140.773C417.916 141.33 417.774 141.841 417.49 142.307C417.217 142.773 416.848 143.148 416.382 143.432C415.928 143.705 415.416 143.841 414.848 143.841ZM438.635 163V136.818H442.521V140.773H442.794C443.271 139.477 444.135 138.426 445.385 137.619C446.635 136.812 448.044 136.409 449.612 136.409C449.908 136.409 450.277 136.415 450.72 136.426C451.163 136.437 451.499 136.455 451.726 136.477V140.568C451.589 140.534 451.277 140.483 450.788 140.415C450.311 140.335 449.805 140.295 449.271 140.295C447.999 140.295 446.862 140.562 445.862 141.097C444.874 141.619 444.089 142.347 443.51 143.278C442.942 144.199 442.658 145.25 442.658 146.432V163H438.635ZM466.675 163.545C464.152 163.545 461.976 162.989 460.146 161.875C458.328 160.75 456.925 159.182 455.936 157.17C454.959 155.148 454.47 152.795 454.47 150.114C454.47 147.432 454.959 145.068 455.936 143.023C456.925 140.966 458.3 139.364 460.061 138.216C461.834 137.057 463.902 136.477 466.266 136.477C467.629 136.477 468.976 136.705 470.305 137.159C471.635 137.614 472.845 138.352 473.936 139.375C475.027 140.386 475.896 141.727 476.544 143.398C477.192 145.068 477.516 147.125 477.516 149.568V151.273H457.334V147.795H473.425C473.425 146.318 473.129 145 472.538 143.841C471.959 142.682 471.129 141.767 470.05 141.097C468.982 140.426 467.72 140.091 466.266 140.091C464.663 140.091 463.277 140.489 462.107 141.284C460.947 142.068 460.055 143.091 459.43 144.352C458.805 145.614 458.493 146.966 458.493 148.409V150.727C458.493 152.705 458.834 154.381 459.516 155.756C460.209 157.119 461.169 158.159 462.396 158.875C463.624 159.58 465.05 159.932 466.675 159.932C467.732 159.932 468.686 159.784 469.538 159.489C470.402 159.182 471.146 158.727 471.771 158.125C472.396 157.511 472.879 156.75 473.22 155.841L477.107 156.932C476.697 158.25 476.01 159.409 475.044 160.409C474.078 161.398 472.885 162.17 471.464 162.727C470.044 163.273 468.447 163.545 466.675 163.545ZM493.521 163.545C491.339 163.545 489.413 162.994 487.743 161.892C486.072 160.778 484.766 159.21 483.822 157.188C482.879 155.153 482.408 152.75 482.408 149.977C482.408 147.227 482.879 144.841 483.822 142.818C484.766 140.795 486.078 139.233 487.76 138.131C489.442 137.028 491.385 136.477 493.589 136.477C495.294 136.477 496.641 136.761 497.629 137.33C498.629 137.886 499.391 138.523 499.913 139.239C500.447 139.943 500.862 140.523 501.158 140.977H501.499V128.091H505.521V163H501.635V158.977H501.158C500.862 159.455 500.442 160.057 499.896 160.784C499.351 161.5 498.572 162.142 497.561 162.71C496.55 163.267 495.203 163.545 493.521 163.545ZM494.067 159.932C495.68 159.932 497.044 159.511 498.158 158.67C499.271 157.818 500.118 156.642 500.697 155.142C501.277 153.631 501.567 151.886 501.567 149.909C501.567 147.955 501.283 146.244 500.714 144.778C500.146 143.301 499.305 142.153 498.192 141.335C497.078 140.506 495.703 140.091 494.067 140.091C492.362 140.091 490.942 140.528 489.805 141.403C488.68 142.267 487.834 143.443 487.266 144.932C486.709 146.409 486.43 148.068 486.43 149.909C486.43 151.773 486.714 153.466 487.283 154.989C487.862 156.5 488.714 157.705 489.839 158.602C490.976 159.489 492.385 159.932 494.067 159.932ZM519.447 158.227L519.175 160.068C518.982 161.364 518.686 162.75 518.288 164.227C517.902 165.705 517.499 167.097 517.078 168.403C516.658 169.71 516.311 170.75 516.038 171.523H512.97C513.118 170.795 513.311 169.835 513.55 168.642C513.788 167.449 514.027 166.114 514.266 164.636C514.516 163.17 514.72 161.67 514.879 160.136L515.084 158.227H519.447ZM516.993 143.841C516.152 143.841 515.43 143.54 514.828 142.938C514.226 142.335 513.925 141.614 513.925 140.773C513.925 139.932 514.226 139.21 514.828 138.608C515.43 138.006 516.152 137.705 516.993 137.705C517.834 137.705 518.555 138.006 519.158 138.608C519.76 139.21 520.061 139.932 520.061 140.773C520.061 141.33 519.919 141.841 519.635 142.307C519.362 142.773 518.993 143.148 518.527 143.432C518.072 143.705 517.561 143.841 516.993 143.841ZM552.06 136.818V140.227H537.946V136.818H552.06ZM542.173 163V133.205C542.173 131.705 542.526 130.455 543.23 129.455C543.935 128.455 544.849 127.705 545.974 127.205C547.099 126.705 548.287 126.455 549.537 126.455C550.526 126.455 551.332 126.534 551.957 126.693C552.582 126.852 553.048 127 553.355 127.136L552.196 130.614C551.991 130.545 551.707 130.46 551.344 130.358C550.991 130.256 550.526 130.205 549.946 130.205C548.616 130.205 547.656 130.54 547.065 131.21C546.486 131.881 546.196 132.864 546.196 134.159V163H542.173ZM567.256 163.545C564.892 163.545 562.818 162.983 561.034 161.858C559.261 160.733 557.875 159.159 556.875 157.136C555.886 155.114 555.392 152.75 555.392 150.045C555.392 147.318 555.886 144.937 556.875 142.903C557.875 140.869 559.261 139.29 561.034 138.165C562.818 137.04 564.892 136.477 567.256 136.477C569.619 136.477 571.688 137.04 573.46 138.165C575.244 139.29 576.631 140.869 577.619 142.903C578.619 144.937 579.119 147.318 579.119 150.045C579.119 152.75 578.619 155.114 577.619 157.136C576.631 159.159 575.244 160.733 573.46 161.858C571.688 162.983 569.619 163.545 567.256 163.545ZM567.256 159.932C569.051 159.932 570.528 159.472 571.688 158.551C572.847 157.631 573.705 156.42 574.261 154.92C574.818 153.42 575.097 151.795 575.097 150.045C575.097 148.295 574.818 146.665 574.261 145.153C573.705 143.642 572.847 142.42 571.688 141.489C570.528 140.557 569.051 140.091 567.256 140.091C565.46 140.091 563.983 140.557 562.824 141.489C561.665 142.42 560.807 143.642 560.25 145.153C559.693 146.665 559.415 148.295 559.415 150.045C559.415 151.795 559.693 153.42 560.25 154.92C560.807 156.42 561.665 157.631 562.824 158.551C563.983 159.472 565.46 159.932 567.256 159.932ZM589.283 147.25V163H585.26V136.818H589.146V140.909H589.487C590.101 139.58 591.033 138.511 592.283 137.705C593.533 136.886 595.146 136.477 597.124 136.477C598.896 136.477 600.447 136.841 601.777 137.568C603.107 138.284 604.141 139.375 604.879 140.841C605.618 142.295 605.987 144.136 605.987 146.364V163H601.964V146.636C601.964 144.58 601.43 142.977 600.362 141.83C599.294 140.67 597.828 140.091 595.964 140.091C594.68 140.091 593.533 140.369 592.521 140.926C591.521 141.483 590.732 142.295 590.152 143.364C589.572 144.432 589.283 145.727 589.283 147.25ZM624.724 136.818V140.227H611.156V136.818H624.724ZM615.111 130.545H619.134V155.5C619.134 156.636 619.298 157.489 619.628 158.057C619.969 158.614 620.401 158.989 620.923 159.182C621.457 159.364 622.02 159.455 622.611 159.455C623.054 159.455 623.418 159.432 623.702 159.386C623.986 159.33 624.213 159.284 624.384 159.25L625.202 162.864C624.929 162.966 624.548 163.068 624.06 163.17C623.571 163.284 622.952 163.341 622.202 163.341C621.065 163.341 619.952 163.097 618.861 162.608C617.781 162.119 616.884 161.375 616.168 160.375C615.463 159.375 615.111 158.114 615.111 156.591V130.545ZM644.838 146.159V149.909H629.565V146.159H644.838ZM670.462 142.682L666.848 143.705C666.621 143.102 666.286 142.517 665.842 141.949C665.411 141.369 664.82 140.892 664.07 140.517C663.32 140.142 662.359 139.955 661.189 139.955C659.587 139.955 658.251 140.324 657.183 141.062C656.126 141.79 655.598 142.716 655.598 143.841C655.598 144.841 655.962 145.631 656.689 146.21C657.416 146.79 658.553 147.273 660.098 147.659L663.984 148.614C666.325 149.182 668.07 150.051 669.217 151.222C670.365 152.381 670.939 153.875 670.939 155.705C670.939 157.205 670.507 158.545 669.643 159.727C668.791 160.909 667.598 161.841 666.064 162.523C664.53 163.205 662.746 163.545 660.712 163.545C658.041 163.545 655.831 162.966 654.081 161.807C652.331 160.648 651.223 158.955 650.757 156.727L654.575 155.773C654.939 157.182 655.626 158.239 656.638 158.943C657.661 159.648 658.996 160 660.643 160C662.518 160 664.007 159.602 665.109 158.807C666.223 158 666.78 157.034 666.78 155.909C666.78 155 666.462 154.239 665.825 153.625C665.189 153 664.212 152.534 662.893 152.227L658.53 151.205C656.132 150.636 654.371 149.756 653.246 148.562C652.132 147.358 651.575 145.852 651.575 144.045C651.575 142.568 651.99 141.261 652.82 140.125C653.661 138.989 654.803 138.097 656.246 137.449C657.7 136.801 659.348 136.477 661.189 136.477C663.78 136.477 665.814 137.045 667.291 138.182C668.78 139.318 669.837 140.818 670.462 142.682ZM676.994 163V136.818H681.017V163H676.994ZM679.04 132.455C678.256 132.455 677.58 132.188 677.011 131.653C676.455 131.119 676.176 130.477 676.176 129.727C676.176 128.977 676.455 128.335 677.011 127.801C677.58 127.267 678.256 127 679.04 127C679.824 127 680.494 127.267 681.051 127.801C681.619 128.335 681.903 128.977 681.903 129.727C681.903 130.477 681.619 131.119 681.051 131.653C680.494 132.188 679.824 132.455 679.04 132.455ZM687.635 163V159.932L702.499 140.841V140.568H688.112V136.818H707.68V140.023L693.226 158.977V159.25H708.158V163H687.635ZM724.581 163.545C722.058 163.545 719.882 162.989 718.053 161.875C716.234 160.75 714.831 159.182 713.842 157.17C712.865 155.148 712.376 152.795 712.376 150.114C712.376 147.432 712.865 145.068 713.842 143.023C714.831 140.966 716.206 139.364 717.967 138.216C719.74 137.057 721.808 136.477 724.172 136.477C725.536 136.477 726.882 136.705 728.212 137.159C729.541 137.614 730.751 138.352 731.842 139.375C732.933 140.386 733.803 141.727 734.45 143.398C735.098 145.068 735.422 147.125 735.422 149.568V151.273H715.24V147.795H731.331C731.331 146.318 731.036 145 730.445 143.841C729.865 142.682 729.036 141.767 727.956 141.097C726.888 140.426 725.626 140.091 724.172 140.091C722.57 140.091 721.183 140.489 720.013 141.284C718.854 142.068 717.962 143.091 717.337 144.352C716.712 145.614 716.399 146.966 716.399 148.409V150.727C716.399 152.705 716.74 154.381 717.422 155.756C718.115 157.119 719.075 158.159 720.303 158.875C721.53 159.58 722.956 159.932 724.581 159.932C725.638 159.932 726.592 159.784 727.445 159.489C728.308 159.182 729.053 158.727 729.678 158.125C730.303 157.511 730.786 156.75 731.126 155.841L735.013 156.932C734.604 158.25 733.916 159.409 732.95 160.409C731.984 161.398 730.791 162.17 729.371 162.727C727.95 163.273 726.354 163.545 724.581 163.545ZM744.473 163.273C743.632 163.273 742.911 162.972 742.308 162.369C741.706 161.767 741.405 161.045 741.405 160.205C741.405 159.364 741.706 158.642 742.308 158.04C742.911 157.437 743.632 157.136 744.473 157.136C745.314 157.136 746.036 157.437 746.638 158.04C747.24 158.642 747.541 159.364 747.541 160.205C747.541 160.761 747.399 161.273 747.115 161.739C746.842 162.205 746.473 162.58 746.007 162.864C745.553 163.136 745.041 163.273 744.473 163.273ZM744.473 143.841C743.632 143.841 742.911 143.54 742.308 142.938C741.706 142.335 741.405 141.614 741.405 140.773C741.405 139.932 741.706 139.21 742.308 138.608C742.911 138.006 743.632 137.705 744.473 137.705C745.314 137.705 746.036 138.006 746.638 138.608C747.24 139.21 747.541 139.932 747.541 140.773C747.541 141.33 747.399 141.841 747.115 142.307C746.842 142.773 746.473 143.148 746.007 143.432C745.553 143.705 745.041 143.841 744.473 143.841ZM767.374 155.841V152.364L782.714 128.091H785.237V133.477H783.533L771.942 151.818V152.091H792.601V155.841H767.374ZM783.805 163V154.784V153.165V128.091H787.828V163H783.805ZM810.034 163.545C807.511 163.545 805.335 162.989 803.506 161.875C801.688 160.75 800.284 159.182 799.295 157.17C798.318 155.148 797.83 152.795 797.83 150.114C797.83 147.432 798.318 145.068 799.295 143.023C800.284 140.966 801.659 139.364 803.42 138.216C805.193 137.057 807.261 136.477 809.625 136.477C810.989 136.477 812.335 136.705 813.665 137.159C814.994 137.614 816.205 138.352 817.295 139.375C818.386 140.386 819.256 141.727 819.903 143.398C820.551 145.068 820.875 147.125 820.875 149.568V151.273H800.693V147.795H816.784C816.784 146.318 816.489 145 815.898 143.841C815.318 142.682 814.489 141.767 813.409 141.097C812.341 140.426 811.08 140.091 809.625 140.091C808.023 140.091 806.636 140.489 805.466 141.284C804.307 142.068 803.415 143.091 802.79 144.352C802.165 145.614 801.852 146.966 801.852 148.409V150.727C801.852 152.705 802.193 154.381 802.875 155.756C803.568 157.119 804.528 158.159 805.756 158.875C806.983 159.58 808.409 159.932 810.034 159.932C811.091 159.932 812.045 159.784 812.898 159.489C813.761 159.182 814.506 158.727 815.131 158.125C815.756 157.511 816.239 156.75 816.58 155.841L820.466 156.932C820.057 158.25 819.369 159.409 818.403 160.409C817.438 161.398 816.244 162.17 814.824 162.727C813.403 163.273 811.807 163.545 810.034 163.545ZM826.994 163V136.818H830.881V140.909H831.222C831.767 139.511 832.648 138.426 833.864 137.653C835.08 136.869 836.54 136.477 838.244 136.477C839.972 136.477 841.409 136.869 842.557 137.653C843.716 138.426 844.619 139.511 845.267 140.909H845.54C846.21 139.557 847.216 138.483 848.557 137.688C849.898 136.881 851.506 136.477 853.381 136.477C855.722 136.477 857.636 137.21 859.125 138.676C860.614 140.131 861.358 142.398 861.358 145.477V163H857.335V145.477C857.335 143.545 856.807 142.165 855.75 141.335C854.693 140.506 853.449 140.091 852.017 140.091C850.176 140.091 848.75 140.648 847.739 141.761C846.727 142.864 846.222 144.261 846.222 145.955V163H842.131V145.068C842.131 143.58 841.648 142.381 840.682 141.472C839.716 140.551 838.472 140.091 836.949 140.091C835.903 140.091 834.926 140.369 834.017 140.926C833.119 141.483 832.392 142.256 831.835 143.244C831.29 144.222 831.017 145.352 831.017 146.636V163H826.994ZM874.713 158.227L874.44 160.068C874.247 161.364 873.952 162.75 873.554 164.227C873.168 165.705 872.764 167.097 872.344 168.403C871.923 169.71 871.577 170.75 871.304 171.523H868.236C868.384 170.795 868.577 169.835 868.815 168.642C869.054 167.449 869.293 166.114 869.531 164.636C869.781 163.17 869.986 161.67 870.145 160.136L870.349 158.227H874.713ZM872.259 143.841C871.418 143.841 870.696 143.54 870.094 142.938C869.491 142.335 869.19 141.614 869.19 140.773C869.19 139.932 869.491 139.21 870.094 138.608C870.696 138.006 871.418 137.705 872.259 137.705C873.099 137.705 873.821 138.006 874.423 138.608C875.026 139.21 875.327 139.932 875.327 140.773C875.327 141.33 875.185 141.841 874.901 142.307C874.628 142.773 874.259 143.148 873.793 143.432C873.338 143.705 872.827 143.841 872.259 143.841ZM907.598 148.205V150.318C905.7 150.318 904.371 150.716 903.609 151.511C902.859 152.307 902.484 153.636 902.484 155.5V160.955C902.484 162.523 902.331 163.881 902.024 165.028C901.729 166.176 901.24 167.125 900.558 167.875C899.876 168.625 898.967 169.182 897.831 169.545C896.695 169.909 895.291 170.091 893.621 170.091V166.75C894.939 166.75 895.973 166.54 896.723 166.119C897.484 165.71 898.018 165.08 898.325 164.227C898.643 163.375 898.803 162.284 898.803 160.955V154.136C898.803 153.25 898.916 152.443 899.143 151.716C899.382 150.989 899.814 150.364 900.439 149.841C901.064 149.318 901.95 148.915 903.098 148.631C904.257 148.347 905.757 148.205 907.598 148.205ZM893.621 126.455C895.291 126.455 896.695 126.636 897.831 127C898.967 127.364 899.876 127.92 900.558 128.67C901.24 129.42 901.729 130.369 902.024 131.517C902.331 132.665 902.484 134.023 902.484 135.591V141.045C902.484 142.909 902.859 144.239 903.609 145.034C904.371 145.83 905.7 146.227 907.598 146.227V148.341C905.757 148.341 904.257 148.199 903.098 147.915C901.95 147.631 901.064 147.227 900.439 146.705C899.814 146.182 899.382 145.557 899.143 144.83C898.916 144.102 898.803 143.295 898.803 142.409V135.591C898.803 134.261 898.643 133.17 898.325 132.318C898.018 131.455 897.484 130.818 896.723 130.409C895.973 130 894.939 129.795 893.621 129.795V126.455ZM907.598 146.227V150.318H903.575V146.227H907.598Z" fill="white"/>
<path d="M89.0732 70.9091C88.9709 70.0455 88.5561 69.375 87.8288 68.8977C87.1016 68.4205 86.2095 68.1818 85.1527 68.1818C84.38 68.1818 83.7038 68.3068 83.1243 68.5568C82.5504 68.8068 82.1016 69.1506 81.7777 69.5881C81.4595 70.0256 81.3004 70.5227 81.3004 71.0795C81.3004 71.5455 81.4112 71.946 81.6328 72.2812C81.8601 72.6108 82.1499 72.8864 82.5021 73.108C82.8544 73.3239 83.2237 73.5028 83.6101 73.6449C83.9964 73.7812 84.3516 73.892 84.6754 73.9773L86.4482 74.4545C86.9027 74.5739 87.4084 74.7386 87.9652 74.9489C88.5277 75.1591 89.0646 75.446 89.576 75.8097C90.093 76.1676 90.5192 76.6278 90.8544 77.1903C91.1896 77.7528 91.3572 78.4432 91.3572 79.2614C91.3572 80.2045 91.1101 81.0568 90.6158 81.8182C90.1271 82.5795 89.4112 83.1847 88.468 83.6335C87.5305 84.0824 86.3913 84.3068 85.0504 84.3068C83.8004 84.3068 82.718 84.1051 81.8033 83.7017C80.8942 83.2983 80.1783 82.7358 79.6555 82.0142C79.1385 81.2926 78.8459 80.4545 78.7777 79.5H80.9595C81.0163 80.1591 81.2379 80.7045 81.6243 81.1364C82.0163 81.5625 82.5107 81.8807 83.1072 82.0909C83.7095 82.2955 84.3572 82.3977 85.0504 82.3977C85.8572 82.3977 86.5817 82.267 87.2237 82.0057C87.8658 81.7386 88.3743 81.3693 88.7493 80.8977C89.1243 80.4205 89.3118 79.8636 89.3118 79.2273C89.3118 78.6477 89.1499 78.1761 88.826 77.8125C88.5021 77.4489 88.076 77.1534 87.5476 76.9261C87.0192 76.6989 86.4482 76.5 85.8345 76.3295L83.6868 75.7159C82.3232 75.3239 81.2436 74.7642 80.4482 74.0369C79.6527 73.3097 79.255 72.358 79.255 71.1818C79.255 70.2045 79.5192 69.3523 80.0476 68.625C80.5817 67.892 81.2976 67.3239 82.1953 66.9205C83.0987 66.5114 84.1072 66.3068 85.2209 66.3068C86.3459 66.3068 87.3459 66.5085 88.2209 66.9119C89.0959 67.3097 89.7891 67.8551 90.3004 68.5483C90.8175 69.2415 91.0902 70.0284 91.1186 70.9091H89.0732ZM100.048 84.2727C98.7869 84.2727 97.6989 83.9943 96.7841 83.4375C95.875 82.875 95.1733 82.0909 94.679 81.0852C94.1903 80.0739 93.946 78.8977 93.946 77.5568C93.946 76.2159 94.1903 75.0341 94.679 74.0114C95.1733 72.983 95.8608 72.1818 96.7415 71.608C97.6278 71.0284 98.6619 70.7386 99.8438 70.7386C100.526 70.7386 101.199 70.8523 101.864 71.0795C102.528 71.3068 103.134 71.6761 103.679 72.1875C104.224 72.6932 104.659 73.3636 104.983 74.1989C105.307 75.0341 105.469 76.0625 105.469 77.2841V78.1364H95.3778V76.3977H103.423C103.423 75.6591 103.276 75 102.98 74.4205C102.69 73.8409 102.276 73.3835 101.736 73.0483C101.202 72.7131 100.571 72.5455 99.8438 72.5455C99.0426 72.5455 98.3494 72.7443 97.7642 73.142C97.1847 73.5341 96.7386 74.0455 96.4261 74.6761C96.1136 75.3068 95.9574 75.983 95.9574 76.7045V77.8636C95.9574 78.8523 96.1278 79.6903 96.4688 80.3778C96.8153 81.0597 97.2955 81.5795 97.9091 81.9375C98.5227 82.2898 99.2358 82.4659 100.048 82.4659C100.577 82.4659 101.054 82.392 101.48 82.2443C101.912 82.0909 102.284 81.8636 102.597 81.5625C102.909 81.2557 103.151 80.875 103.321 80.4205L105.264 80.9659C105.06 81.625 104.716 82.2045 104.233 82.7045C103.75 83.1989 103.153 83.5852 102.443 83.8636C101.733 84.1364 100.935 84.2727 100.048 84.2727ZM110.54 66.5455V84H108.528V66.5455H110.54ZM119.712 84.2727C118.451 84.2727 117.363 83.9943 116.448 83.4375C115.539 82.875 114.837 82.0909 114.343 81.0852C113.854 80.0739 113.61 78.8977 113.61 77.5568C113.61 76.2159 113.854 75.0341 114.343 74.0114C114.837 72.983 115.525 72.1818 116.406 71.608C117.292 71.0284 118.326 70.7386 119.508 70.7386C120.19 70.7386 120.863 70.8523 121.528 71.0795C122.192 71.3068 122.798 71.6761 123.343 72.1875C123.888 72.6932 124.323 73.3636 124.647 74.1989C124.971 75.0341 125.133 76.0625 125.133 77.2841V78.1364H115.042V76.3977H123.087C123.087 75.6591 122.94 75 122.644 74.4205C122.354 73.8409 121.94 73.3835 121.4 73.0483C120.866 72.7131 120.235 72.5455 119.508 72.5455C118.707 72.5455 118.013 72.7443 117.428 73.142C116.849 73.5341 116.403 74.0455 116.09 74.6761C115.778 75.3068 115.621 75.983 115.621 76.7045V77.8636C115.621 78.8523 115.792 79.6903 116.133 80.3778C116.479 81.0597 116.96 81.5795 117.573 81.9375C118.187 82.2898 118.9 82.4659 119.712 82.4659C120.241 82.4659 120.718 82.392 121.144 82.2443C121.576 82.0909 121.948 81.8636 122.261 81.5625C122.573 81.2557 122.815 80.875 122.985 80.4205L124.928 80.9659C124.724 81.625 124.38 82.2045 123.897 82.7045C123.414 83.1989 122.817 83.5852 122.107 83.8636C121.397 84.1364 120.599 84.2727 119.712 84.2727ZM133.511 84.2727C132.283 84.2727 131.227 83.983 130.34 83.4034C129.454 82.8239 128.772 82.0256 128.295 81.0085C127.817 79.9915 127.579 78.8295 127.579 77.5227C127.579 76.1932 127.823 75.0199 128.312 74.0028C128.806 72.9801 129.494 72.1818 130.374 71.608C131.261 71.0284 132.295 70.7386 133.477 70.7386C134.397 70.7386 135.227 70.9091 135.965 71.25C136.704 71.5909 137.309 72.0682 137.781 72.6818C138.252 73.2955 138.545 74.0114 138.658 74.8295H136.647C136.494 74.233 136.153 73.7045 135.624 73.2443C135.102 72.7784 134.397 72.5455 133.511 72.5455C132.727 72.5455 132.039 72.75 131.448 73.1591C130.863 73.5625 130.406 74.1335 130.076 74.8722C129.752 75.6051 129.59 76.4659 129.59 77.4545C129.59 78.4659 129.749 79.3466 130.067 80.0966C130.391 80.8466 130.846 81.429 131.431 81.8438C132.022 82.2585 132.715 82.4659 133.511 82.4659C134.033 82.4659 134.508 82.375 134.934 82.1932C135.36 82.0114 135.721 81.75 136.016 81.4091C136.312 81.0682 136.522 80.6591 136.647 80.1818H138.658C138.545 80.9545 138.263 81.6506 137.815 82.2699C137.371 82.8835 136.783 83.3722 136.05 83.7358C135.323 84.0938 134.477 84.2727 133.511 84.2727ZM147.292 70.9091V72.6136H140.508V70.9091H147.292ZM142.485 67.7727H144.496V80.25C144.496 80.8182 144.579 81.2443 144.744 81.5284C144.914 81.8068 145.13 81.9943 145.391 82.0909C145.658 82.1818 145.94 82.2273 146.235 82.2273C146.457 82.2273 146.638 82.2159 146.781 82.1932C146.923 82.1648 147.036 82.142 147.121 82.125L147.531 83.9318C147.394 83.983 147.204 84.0341 146.96 84.0852C146.715 84.142 146.406 84.1705 146.031 84.1705C145.462 84.1705 144.906 84.0483 144.36 83.804C143.82 83.5597 143.371 83.1875 143.013 82.6875C142.661 82.1875 142.485 81.5568 142.485 80.7955V67.7727ZM155.495 84.2727C154.313 84.2727 153.276 83.9915 152.384 83.429C151.498 82.8665 150.805 82.0795 150.305 81.0682C149.81 80.0568 149.563 78.875 149.563 77.5227C149.563 76.1591 149.81 74.9687 150.305 73.9517C150.805 72.9347 151.498 72.1449 152.384 71.5824C153.276 71.0199 154.313 70.7386 155.495 70.7386C156.677 70.7386 157.711 71.0199 158.597 71.5824C159.489 72.1449 160.183 72.9347 160.677 73.9517C161.177 74.9687 161.427 76.1591 161.427 77.5227C161.427 78.875 161.177 80.0568 160.677 81.0682C160.183 82.0795 159.489 82.8665 158.597 83.429C157.711 83.9915 156.677 84.2727 155.495 84.2727ZM155.495 82.4659C156.393 82.4659 157.131 82.2358 157.711 81.7756C158.29 81.3153 158.719 80.7102 158.998 79.9602C159.276 79.2102 159.415 78.3977 159.415 77.5227C159.415 76.6477 159.276 75.8324 158.998 75.0767C158.719 74.321 158.29 73.7102 157.711 73.2443C157.131 72.7784 156.393 72.5455 155.495 72.5455C154.597 72.5455 153.859 72.7784 153.279 73.2443C152.7 73.7102 152.271 74.321 151.992 75.0767C151.714 75.8324 151.575 76.6477 151.575 77.5227C151.575 78.3977 151.714 79.2102 151.992 79.9602C152.271 80.7102 152.7 81.3153 153.279 81.7756C153.859 82.2358 154.597 82.4659 155.495 82.4659ZM164.497 84V70.9091H166.44V72.8864H166.577C166.815 72.2386 167.247 71.7131 167.872 71.3097C168.497 70.9062 169.202 70.7045 169.986 70.7045C170.134 70.7045 170.318 70.7074 170.54 70.7131C170.761 70.7187 170.929 70.7273 171.043 70.7386V72.7841C170.974 72.767 170.818 72.7415 170.574 72.7074C170.335 72.6676 170.082 72.6477 169.815 72.6477C169.179 72.6477 168.611 72.7812 168.111 73.0483C167.616 73.3097 167.224 73.6733 166.935 74.1392C166.651 74.5994 166.509 75.125 166.509 75.7159V84H164.497Z" fill="black"/>
<path d="M302.36 237V219.545H308.257C309.627 219.545 310.746 219.793 311.615 220.287C312.49 220.776 313.138 221.438 313.559 222.273C313.979 223.108 314.189 224.04 314.189 225.068C314.189 226.097 313.979 227.031 313.559 227.872C313.144 228.713 312.502 229.384 311.632 229.884C310.763 230.378 309.65 230.625 308.292 230.625H304.064V228.75H308.223C309.161 228.75 309.914 228.588 310.482 228.264C311.05 227.94 311.462 227.503 311.718 226.952C311.979 226.395 312.11 225.767 312.11 225.068C312.11 224.369 311.979 223.744 311.718 223.193C311.462 222.642 311.047 222.21 310.473 221.898C309.9 221.58 309.138 221.42 308.189 221.42H304.473V237H302.36ZM317.321 237V223.909H319.265V225.886H319.401C319.64 225.239 320.071 224.713 320.696 224.31C321.321 223.906 322.026 223.705 322.81 223.705C322.958 223.705 323.142 223.707 323.364 223.713C323.586 223.719 323.753 223.727 323.867 223.739V225.784C323.799 225.767 323.642 225.741 323.398 225.707C323.159 225.668 322.907 225.648 322.64 225.648C322.003 225.648 321.435 225.781 320.935 226.048C320.441 226.31 320.049 226.673 319.759 227.139C319.475 227.599 319.333 228.125 319.333 228.716V237H317.321ZM331.171 237.273C329.989 237.273 328.952 236.991 328.06 236.429C327.174 235.866 326.48 235.08 325.98 234.068C325.486 233.057 325.239 231.875 325.239 230.523C325.239 229.159 325.486 227.969 325.98 226.952C326.48 225.935 327.174 225.145 328.06 224.582C328.952 224.02 329.989 223.739 331.171 223.739C332.353 223.739 333.387 224.02 334.273 224.582C335.165 225.145 335.858 225.935 336.353 226.952C336.853 227.969 337.103 229.159 337.103 230.523C337.103 231.875 336.853 233.057 336.353 234.068C335.858 235.08 335.165 235.866 334.273 236.429C333.387 236.991 332.353 237.273 331.171 237.273ZM331.171 235.466C332.069 235.466 332.807 235.236 333.387 234.776C333.966 234.315 334.395 233.71 334.674 232.96C334.952 232.21 335.091 231.398 335.091 230.523C335.091 229.648 334.952 228.832 334.674 228.077C334.395 227.321 333.966 226.71 333.387 226.244C332.807 225.778 332.069 225.545 331.171 225.545C330.273 225.545 329.534 225.778 328.955 226.244C328.375 226.71 327.946 227.321 327.668 228.077C327.39 228.832 327.25 229.648 327.25 230.523C327.25 231.398 327.39 232.21 327.668 232.96C327.946 233.71 328.375 234.315 328.955 234.776C329.534 235.236 330.273 235.466 331.171 235.466ZM340.173 241.909V223.909H342.116V225.989H342.355C342.502 225.761 342.707 225.472 342.968 225.119C343.235 224.761 343.616 224.443 344.11 224.165C344.61 223.881 345.287 223.739 346.139 223.739C347.241 223.739 348.213 224.014 349.054 224.565C349.895 225.116 350.551 225.898 351.022 226.909C351.494 227.92 351.73 229.114 351.73 230.489C351.73 231.875 351.494 233.077 351.022 234.094C350.551 235.105 349.897 235.889 349.062 236.446C348.227 236.997 347.264 237.273 346.173 237.273C345.332 237.273 344.659 237.134 344.153 236.855C343.647 236.571 343.258 236.25 342.985 235.892C342.713 235.528 342.502 235.227 342.355 234.989H342.184V241.909H340.173ZM342.15 230.455C342.15 231.443 342.295 232.315 342.585 233.071C342.875 233.821 343.298 234.409 343.855 234.835C344.412 235.256 345.093 235.466 345.9 235.466C346.741 235.466 347.443 235.244 348.005 234.801C348.574 234.352 349 233.75 349.284 232.994C349.574 232.233 349.718 231.386 349.718 230.455C349.718 229.534 349.576 228.705 349.292 227.966C349.014 227.222 348.591 226.634 348.022 226.202C347.46 225.764 346.752 225.545 345.9 225.545C345.082 225.545 344.395 225.753 343.838 226.168C343.281 226.577 342.86 227.151 342.576 227.889C342.292 228.622 342.15 229.477 342.15 230.455ZM360.287 237.273C359.025 237.273 357.937 236.994 357.022 236.438C356.113 235.875 355.412 235.091 354.917 234.085C354.429 233.074 354.184 231.898 354.184 230.557C354.184 229.216 354.429 228.034 354.917 227.011C355.412 225.983 356.099 225.182 356.98 224.608C357.866 224.028 358.9 223.739 360.082 223.739C360.764 223.739 361.437 223.852 362.102 224.08C362.767 224.307 363.372 224.676 363.917 225.188C364.463 225.693 364.897 226.364 365.221 227.199C365.545 228.034 365.707 229.062 365.707 230.284V231.136H355.616V229.398H363.662C363.662 228.659 363.514 228 363.218 227.42C362.929 226.841 362.514 226.384 361.974 226.048C361.44 225.713 360.809 225.545 360.082 225.545C359.281 225.545 358.588 225.744 358.002 226.142C357.423 226.534 356.977 227.045 356.664 227.676C356.352 228.307 356.196 228.983 356.196 229.705V230.864C356.196 231.852 356.366 232.69 356.707 233.378C357.054 234.06 357.534 234.58 358.147 234.938C358.761 235.29 359.474 235.466 360.287 235.466C360.815 235.466 361.292 235.392 361.718 235.244C362.15 235.091 362.522 234.864 362.835 234.562C363.147 234.256 363.389 233.875 363.559 233.42L365.502 233.966C365.298 234.625 364.954 235.205 364.471 235.705C363.988 236.199 363.392 236.585 362.681 236.864C361.971 237.136 361.173 237.273 360.287 237.273ZM368.767 237V223.909H370.71V225.886H370.846C371.085 225.239 371.517 224.713 372.142 224.31C372.767 223.906 373.471 223.705 374.255 223.705C374.403 223.705 374.588 223.707 374.809 223.713C375.031 223.719 375.199 223.727 375.312 223.739V225.784C375.244 225.767 375.088 225.741 374.843 225.707C374.605 225.668 374.352 225.648 374.085 225.648C373.449 225.648 372.88 225.781 372.38 226.048C371.886 226.31 371.494 226.673 371.204 227.139C370.92 227.599 370.778 228.125 370.778 228.716V237H368.767ZM384.21 223.909V225.614H377.426V223.909H384.21ZM379.403 220.773H381.414V233.25C381.414 233.818 381.497 234.244 381.662 234.528C381.832 234.807 382.048 234.994 382.309 235.091C382.576 235.182 382.858 235.227 383.153 235.227C383.375 235.227 383.556 235.216 383.699 235.193C383.841 235.165 383.954 235.142 384.039 235.125L384.449 236.932C384.312 236.983 384.122 237.034 383.877 237.085C383.633 237.142 383.324 237.17 382.949 237.17C382.38 237.17 381.824 237.048 381.278 236.804C380.738 236.56 380.289 236.188 379.931 235.688C379.579 235.188 379.403 234.557 379.403 233.795V220.773ZM388.531 241.909C388.19 241.909 387.886 241.881 387.619 241.824C387.352 241.773 387.167 241.722 387.065 241.67L387.576 239.898C388.065 240.023 388.497 240.068 388.872 240.034C389.247 240 389.579 239.832 389.869 239.531C390.164 239.236 390.434 238.756 390.679 238.091L391.054 237.068L386.213 223.909H388.395L392.008 234.341H392.145L395.758 223.909H397.94L392.383 238.909C392.133 239.585 391.824 240.145 391.454 240.588C391.085 241.037 390.656 241.369 390.167 241.585C389.684 241.801 389.139 241.909 388.531 241.909Z" fill="black"/>
<path d="M447.263 219.545L452.445 234.239H452.65L457.831 219.545H460.047L453.638 237H451.456L445.047 219.545H447.263ZM465.127 237.307C464.297 237.307 463.544 237.151 462.868 236.838C462.192 236.52 461.655 236.062 461.257 235.466C460.86 234.864 460.661 234.136 460.661 233.284C460.661 232.534 460.809 231.926 461.104 231.46C461.4 230.989 461.794 230.619 462.289 230.352C462.783 230.085 463.328 229.886 463.925 229.756C464.527 229.619 465.132 229.511 465.74 229.432C466.536 229.33 467.181 229.253 467.675 229.202C468.175 229.145 468.539 229.051 468.766 228.92C468.999 228.79 469.115 228.562 469.115 228.239V228.17C469.115 227.33 468.885 226.676 468.425 226.21C467.971 225.744 467.28 225.511 466.354 225.511C465.394 225.511 464.641 225.722 464.096 226.142C463.55 226.562 463.167 227.011 462.945 227.489L461.036 226.807C461.377 226.011 461.831 225.392 462.4 224.949C462.973 224.5 463.598 224.187 464.275 224.011C464.956 223.83 465.627 223.739 466.286 223.739C466.706 223.739 467.189 223.79 467.735 223.892C468.286 223.989 468.817 224.19 469.328 224.497C469.846 224.804 470.275 225.267 470.615 225.886C470.956 226.506 471.127 227.335 471.127 228.375V237H469.115V235.227H469.013C468.877 235.511 468.65 235.815 468.331 236.139C468.013 236.463 467.59 236.739 467.061 236.966C466.533 237.193 465.888 237.307 465.127 237.307ZM465.434 235.5C466.229 235.5 466.9 235.344 467.445 235.031C467.996 234.719 468.411 234.315 468.689 233.821C468.973 233.327 469.115 232.807 469.115 232.261V230.42C469.03 230.523 468.843 230.616 468.553 230.702C468.269 230.781 467.939 230.852 467.564 230.915C467.195 230.972 466.834 231.023 466.482 231.068C466.135 231.108 465.854 231.142 465.638 231.17C465.115 231.239 464.627 231.349 464.172 231.503C463.723 231.651 463.36 231.875 463.081 232.176C462.809 232.472 462.672 232.875 462.672 233.386C462.672 234.085 462.931 234.614 463.448 234.972C463.971 235.324 464.632 235.5 465.434 235.5ZM476.809 219.545V237H474.798V219.545H476.809ZM488.743 231.648V223.909H490.755V237H488.743V234.784H488.607C488.3 235.449 487.823 236.014 487.175 236.48C486.527 236.94 485.709 237.17 484.721 237.17C483.902 237.17 483.175 236.991 482.539 236.634C481.902 236.27 481.402 235.724 481.039 234.997C480.675 234.264 480.493 233.341 480.493 232.227V223.909H482.505V232.091C482.505 233.045 482.772 233.807 483.306 234.375C483.846 234.943 484.533 235.227 485.368 235.227C485.868 235.227 486.377 235.099 486.894 234.844C487.417 234.588 487.854 234.196 488.206 233.668C488.564 233.139 488.743 232.466 488.743 231.648ZM499.927 237.273C498.666 237.273 497.578 236.994 496.663 236.438C495.754 235.875 495.052 235.091 494.558 234.085C494.069 233.074 493.825 231.898 493.825 230.557C493.825 229.216 494.069 228.034 494.558 227.011C495.052 225.983 495.74 225.182 496.62 224.608C497.507 224.028 498.541 223.739 499.723 223.739C500.404 223.739 501.078 223.852 501.743 224.08C502.407 224.307 503.012 224.676 503.558 225.188C504.103 225.693 504.538 226.364 504.862 227.199C505.186 228.034 505.348 229.062 505.348 230.284V231.136H495.257V229.398H503.302C503.302 228.659 503.154 228 502.859 227.42C502.569 226.841 502.154 226.384 501.615 226.048C501.081 225.713 500.45 225.545 499.723 225.545C498.922 225.545 498.228 225.744 497.643 226.142C497.064 226.534 496.618 227.045 496.305 227.676C495.993 228.307 495.836 228.983 495.836 229.705V230.864C495.836 231.852 496.007 232.69 496.348 233.378C496.694 234.06 497.174 234.58 497.788 234.938C498.402 235.29 499.115 235.466 499.927 235.466C500.456 235.466 500.933 235.392 501.359 235.244C501.791 235.091 502.163 234.864 502.475 234.562C502.788 234.256 503.029 233.875 503.2 233.42L505.143 233.966C504.939 234.625 504.595 235.205 504.112 235.705C503.629 236.199 503.032 236.585 502.322 236.864C501.612 237.136 500.814 237.273 499.927 237.273Z" fill="black"/>
<path d="M594.36 237V219.545H600.257C601.627 219.545 602.746 219.793 603.615 220.287C604.49 220.776 605.138 221.438 605.559 222.273C605.979 223.108 606.189 224.04 606.189 225.068C606.189 226.097 605.979 227.031 605.559 227.872C605.144 228.713 604.502 229.384 603.632 229.884C602.763 230.378 601.65 230.625 600.292 230.625H596.064V228.75H600.223C601.161 228.75 601.914 228.588 602.482 228.264C603.05 227.94 603.462 227.503 603.718 226.952C603.979 226.395 604.11 225.767 604.11 225.068C604.11 224.369 603.979 223.744 603.718 223.193C603.462 222.642 603.047 222.21 602.473 221.898C601.9 221.58 601.138 221.42 600.189 221.42H596.473V237H594.36ZM609.321 237V223.909H611.265V225.886H611.401C611.64 225.239 612.071 224.713 612.696 224.31C613.321 223.906 614.026 223.705 614.81 223.705C614.958 223.705 615.142 223.707 615.364 223.713C615.586 223.719 615.753 223.727 615.867 223.739V225.784C615.799 225.767 615.642 225.741 615.398 225.707C615.159 225.668 614.907 225.648 614.64 225.648C614.003 225.648 613.435 225.781 612.935 226.048C612.441 226.31 612.049 226.673 611.759 227.139C611.475 227.599 611.333 228.125 611.333 228.716V237H609.321ZM623.171 237.273C621.989 237.273 620.952 236.991 620.06 236.429C619.174 235.866 618.48 235.08 617.98 234.068C617.486 233.057 617.239 231.875 617.239 230.523C617.239 229.159 617.486 227.969 617.98 226.952C618.48 225.935 619.174 225.145 620.06 224.582C620.952 224.02 621.989 223.739 623.171 223.739C624.353 223.739 625.387 224.02 626.273 224.582C627.165 225.145 627.858 225.935 628.353 226.952C628.853 227.969 629.103 229.159 629.103 230.523C629.103 231.875 628.853 233.057 628.353 234.068C627.858 235.08 627.165 235.866 626.273 236.429C625.387 236.991 624.353 237.273 623.171 237.273ZM623.171 235.466C624.069 235.466 624.807 235.236 625.387 234.776C625.966 234.315 626.395 233.71 626.674 232.96C626.952 232.21 627.091 231.398 627.091 230.523C627.091 229.648 626.952 228.832 626.674 228.077C626.395 227.321 625.966 226.71 625.387 226.244C624.807 225.778 624.069 225.545 623.171 225.545C622.273 225.545 621.534 225.778 620.955 226.244C620.375 226.71 619.946 227.321 619.668 228.077C619.39 228.832 619.25 229.648 619.25 230.523C619.25 231.398 619.39 232.21 619.668 232.96C619.946 233.71 620.375 234.315 620.955 234.776C621.534 235.236 622.273 235.466 623.171 235.466ZM632.173 241.909V223.909H634.116V225.989H634.355C634.502 225.761 634.707 225.472 634.968 225.119C635.235 224.761 635.616 224.443 636.11 224.165C636.61 223.881 637.287 223.739 638.139 223.739C639.241 223.739 640.213 224.014 641.054 224.565C641.895 225.116 642.551 225.898 643.022 226.909C643.494 227.92 643.73 229.114 643.73 230.489C643.73 231.875 643.494 233.077 643.022 234.094C642.551 235.105 641.897 235.889 641.062 236.446C640.227 236.997 639.264 237.273 638.173 237.273C637.332 237.273 636.659 237.134 636.153 236.855C635.647 236.571 635.258 236.25 634.985 235.892C634.713 235.528 634.502 235.227 634.355 234.989H634.184V241.909H632.173ZM634.15 230.455C634.15 231.443 634.295 232.315 634.585 233.071C634.875 233.821 635.298 234.409 635.855 234.835C636.412 235.256 637.093 235.466 637.9 235.466C638.741 235.466 639.443 235.244 640.005 234.801C640.574 234.352 641 233.75 641.284 232.994C641.574 232.233 641.718 231.386 641.718 230.455C641.718 229.534 641.576 228.705 641.292 227.966C641.014 227.222 640.591 226.634 640.022 226.202C639.46 225.764 638.752 225.545 637.9 225.545C637.082 225.545 636.395 225.753 635.838 226.168C635.281 226.577 634.86 227.151 634.576 227.889C634.292 228.622 634.15 229.477 634.15 230.455ZM652.287 237.273C651.025 237.273 649.937 236.994 649.022 236.438C648.113 235.875 647.412 235.091 646.917 234.085C646.429 233.074 646.184 231.898 646.184 230.557C646.184 229.216 646.429 228.034 646.917 227.011C647.412 225.983 648.099 225.182 648.98 224.608C649.866 224.028 650.9 223.739 652.082 223.739C652.764 223.739 653.437 223.852 654.102 224.08C654.767 224.307 655.372 224.676 655.917 225.188C656.463 225.693 656.897 226.364 657.221 227.199C657.545 228.034 657.707 229.062 657.707 230.284V231.136H647.616V229.398H655.662C655.662 228.659 655.514 228 655.218 227.42C654.929 226.841 654.514 226.384 653.974 226.048C653.44 225.713 652.809 225.545 652.082 225.545C651.281 225.545 650.588 225.744 650.002 226.142C649.423 226.534 648.977 227.045 648.664 227.676C648.352 228.307 648.196 228.983 648.196 229.705V230.864C648.196 231.852 648.366 232.69 648.707 233.378C649.054 234.06 649.534 234.58 650.147 234.938C650.761 235.29 651.474 235.466 652.287 235.466C652.815 235.466 653.292 235.392 653.718 235.244C654.15 235.091 654.522 234.864 654.835 234.562C655.147 234.256 655.389 233.875 655.559 233.42L657.502 233.966C657.298 234.625 656.954 235.205 656.471 235.705C655.988 236.199 655.392 236.585 654.681 236.864C653.971 237.136 653.173 237.273 652.287 237.273ZM660.767 237V223.909H662.71V225.886H662.846C663.085 225.239 663.517 224.713 664.142 224.31C664.767 223.906 665.471 223.705 666.255 223.705C666.403 223.705 666.588 223.707 666.809 223.713C667.031 223.719 667.199 223.727 667.312 223.739V225.784C667.244 225.767 667.088 225.741 666.843 225.707C666.605 225.668 666.352 225.648 666.085 225.648C665.449 225.648 664.88 225.781 664.38 226.048C663.886 226.31 663.494 226.673 663.204 227.139C662.92 227.599 662.778 228.125 662.778 228.716V237H660.767ZM676.21 223.909V225.614H669.426V223.909H676.21ZM671.403 220.773H673.414V233.25C673.414 233.818 673.497 234.244 673.662 234.528C673.832 234.807 674.048 234.994 674.309 235.091C674.576 235.182 674.858 235.227 675.153 235.227C675.375 235.227 675.556 235.216 675.699 235.193C675.841 235.165 675.954 235.142 676.039 235.125L676.449 236.932C676.312 236.983 676.122 237.034 675.877 237.085C675.633 237.142 675.324 237.17 674.949 237.17C674.38 237.17 673.824 237.048 673.278 236.804C672.738 236.56 672.289 236.188 671.931 235.688C671.579 235.188 671.403 234.557 671.403 233.795V220.773ZM680.531 241.909C680.19 241.909 679.886 241.881 679.619 241.824C679.352 241.773 679.167 241.722 679.065 241.67L679.576 239.898C680.065 240.023 680.497 240.068 680.872 240.034C681.247 240 681.579 239.832 681.869 239.531C682.164 239.236 682.434 238.756 682.679 238.091L683.054 237.068L678.213 223.909H680.395L684.008 234.341H684.145L687.758 223.909H689.94L684.383 238.909C684.133 239.585 683.824 240.145 683.454 240.588C683.085 241.037 682.656 241.369 682.167 241.585C681.684 241.801 681.139 241.909 680.531 241.909Z" fill="black"/>
<path d="M794.263 219.545L799.445 234.239H799.65L804.831 219.545H807.047L800.638 237H798.456L792.047 219.545H794.263ZM812.127 237.307C811.297 237.307 810.544 237.151 809.868 236.838C809.192 236.52 808.655 236.062 808.257 235.466C807.86 234.864 807.661 234.136 807.661 233.284C807.661 232.534 807.809 231.926 808.104 231.46C808.4 230.989 808.794 230.619 809.289 230.352C809.783 230.085 810.328 229.886 810.925 229.756C811.527 229.619 812.132 229.511 812.74 229.432C813.536 229.33 814.181 229.253 814.675 229.202C815.175 229.145 815.539 229.051 815.766 228.92C815.999 228.79 816.115 228.562 816.115 228.239V228.17C816.115 227.33 815.885 226.676 815.425 226.21C814.971 225.744 814.28 225.511 813.354 225.511C812.394 225.511 811.641 225.722 811.096 226.142C810.55 226.562 810.167 227.011 809.945 227.489L808.036 226.807C808.377 226.011 808.831 225.392 809.4 224.949C809.973 224.5 810.598 224.187 811.275 224.011C811.956 223.83 812.627 223.739 813.286 223.739C813.706 223.739 814.189 223.79 814.735 223.892C815.286 223.989 815.817 224.19 816.328 224.497C816.846 224.804 817.275 225.267 817.615 225.886C817.956 226.506 818.127 227.335 818.127 228.375V237H816.115V235.227H816.013C815.877 235.511 815.65 235.815 815.331 236.139C815.013 236.463 814.59 236.739 814.061 236.966C813.533 237.193 812.888 237.307 812.127 237.307ZM812.434 235.5C813.229 235.5 813.9 235.344 814.445 235.031C814.996 234.719 815.411 234.315 815.689 233.821C815.973 233.327 816.115 232.807 816.115 232.261V230.42C816.03 230.523 815.843 230.616 815.553 230.702C815.269 230.781 814.939 230.852 814.564 230.915C814.195 230.972 813.834 231.023 813.482 231.068C813.135 231.108 812.854 231.142 812.638 231.17C812.115 231.239 811.627 231.349 811.172 231.503C810.723 231.651 810.36 231.875 810.081 232.176C809.809 232.472 809.672 232.875 809.672 233.386C809.672 234.085 809.931 234.614 810.448 234.972C810.971 235.324 811.632 235.5 812.434 235.5ZM823.809 219.545V237H821.798V219.545H823.809ZM835.743 231.648V223.909H837.755V237H835.743V234.784H835.607C835.3 235.449 834.823 236.014 834.175 236.48C833.527 236.94 832.709 237.17 831.721 237.17C830.902 237.17 830.175 236.991 829.539 236.634C828.902 236.27 828.402 235.724 828.039 234.997C827.675 234.264 827.493 233.341 827.493 232.227V223.909H829.505V232.091C829.505 233.045 829.772 233.807 830.306 234.375C830.846 234.943 831.533 235.227 832.368 235.227C832.868 235.227 833.377 235.099 833.894 234.844C834.417 234.588 834.854 234.196 835.206 233.668C835.564 233.139 835.743 232.466 835.743 231.648ZM846.927 237.273C845.666 237.273 844.578 236.994 843.663 236.438C842.754 235.875 842.052 235.091 841.558 234.085C841.069 233.074 840.825 231.898 840.825 230.557C840.825 229.216 841.069 228.034 841.558 227.011C842.052 225.983 842.74 225.182 843.62 224.608C844.507 224.028 845.541 223.739 846.723 223.739C847.404 223.739 848.078 223.852 848.743 224.08C849.407 224.307 850.012 224.676 850.558 225.188C851.103 225.693 851.538 226.364 851.862 227.199C852.186 228.034 852.348 229.062 852.348 230.284V231.136H842.257V229.398H850.302C850.302 228.659 850.154 228 849.859 227.42C849.569 226.841 849.154 226.384 848.615 226.048C848.081 225.713 847.45 225.545 846.723 225.545C845.922 225.545 845.228 225.744 844.643 226.142C844.064 226.534 843.618 227.045 843.305 227.676C842.993 228.307 842.836 228.983 842.836 229.705V230.864C842.836 231.852 843.007 232.69 843.348 233.378C843.694 234.06 844.174 234.58 844.788 234.938C845.402 235.29 846.115 235.466 846.927 235.466C847.456 235.466 847.933 235.392 848.359 235.244C848.791 235.091 849.163 234.864 849.475 234.562C849.788 234.256 850.029 233.875 850.2 233.42L852.143 233.966C851.939 234.625 851.595 235.205 851.112 235.705C850.629 236.199 850.032 236.585 849.322 236.864C848.612 237.136 847.814 237.273 846.927 237.273Z" fill="black"/>
<path d="M350.061 173.939C349.475 173.354 348.525 173.354 347.939 173.939L338.393 183.485C337.808 184.071 337.808 185.021 338.393 185.607C338.979 186.192 339.929 186.192 340.515 185.607L349 177.121L357.485 185.607C358.071 186.192 359.021 186.192 359.607 185.607C360.192 185.021 360.192 184.071 359.607 183.485L350.061 173.939ZM350.5 209L350.5 175L347.5 175L347.5 209L350.5 209Z" fill="black"/>
<path d="M122.939 125.061C123.525 125.646 124.475 125.646 125.061 125.061L134.607 115.515C135.192 114.929 135.192 113.979 134.607 113.393C134.021 112.808 133.071 112.808 132.485 113.393L124 121.879L115.515 113.393C114.929 112.808 113.979 112.808 113.393 113.393C112.808 113.979 112.808 114.929 113.393 115.515L122.939 125.061ZM122.5 90L122.5 124L125.5 124L125.5 90L122.5 90Z" fill="black"/>
<path d="M477.061 173.939C476.475 173.354 475.525 173.354 474.939 173.939L465.393 183.485C464.808 184.071 464.808 185.021 465.393 185.607C465.979 186.192 466.929 186.192 467.515 185.607L476 177.121L484.485 185.607C485.071 186.192 486.021 186.192 486.607 185.607C487.192 185.021 487.192 184.071 486.607 183.485L477.061 173.939ZM477.5 209L477.5 175L474.5 175L474.5 209L477.5 209Z" fill="black"/>
<path d="M643.061 168.939C642.475 168.354 641.525 168.354 640.939 168.939L631.393 178.485C630.808 179.071 630.808 180.021 631.393 180.607C631.979 181.192 632.929 181.192 633.515 180.607L642 172.121L650.485 180.607C651.071 181.192 652.021 181.192 652.607 180.607C653.192 180.021 653.192 179.071 652.607 178.485L643.061 168.939ZM643.5 204L643.5 170L640.5 170L640.5 204L643.5 204Z" fill="black"/>
<path d="M824.061 168.939C823.475 168.354 822.525 168.354 821.939 168.939L812.393 178.485C811.808 179.071 811.808 180.021 812.393 180.607C812.979 181.192 813.929 181.192 814.515 180.607L823 172.121L831.485 180.607C832.071 181.192 833.021 181.192 833.607 180.607C834.192 180.021 834.192 179.071 833.607 178.485L824.061 168.939ZM824.5 204L824.5 170L821.5 170L821.5 204L824.5 204Z" fill="black"/>
<path d="M306 96.5V78.5L504 78.5V96.5M568 96.5V78.5L865 78.5V96.5" stroke="black" stroke-width="2" stroke-linejoin="round"/>
<rect x="324" y="56" width="161" height="40" fill="white"/>
<rect x="644" y="56" width="161" height="40" fill="white"/>
<path d="M667.965 84H662.578V66.5455H668.203C669.897 66.5455 671.346 66.8949 672.55 67.5938C673.755 68.2869 674.678 69.2841 675.32 70.5852C675.962 71.8807 676.283 73.4318 676.283 75.2386C676.283 77.0568 675.959 78.6222 675.311 79.9347C674.664 81.2415 673.721 82.2472 672.482 82.9517C671.243 83.6506 669.738 84 667.965 84ZM664.692 82.125H667.828C669.272 82.125 670.468 81.8466 671.417 81.2898C672.365 80.733 673.073 79.9403 673.539 78.9119C674.005 77.8835 674.238 76.6591 674.238 75.2386C674.238 73.8295 674.007 72.6165 673.547 71.5994C673.087 70.5767 672.4 69.7926 671.485 69.2472C670.57 68.696 669.431 68.4205 668.067 68.4205H664.692V82.125ZM685.044 84.2727C683.783 84.2727 682.695 83.9943 681.78 83.4375C680.871 82.875 680.169 82.0909 679.675 81.0852C679.186 80.0739 678.942 78.8977 678.942 77.5568C678.942 76.2159 679.186 75.0341 679.675 74.0114C680.169 72.983 680.857 72.1818 681.738 71.608C682.624 71.0284 683.658 70.7386 684.84 70.7386C685.522 70.7386 686.195 70.8523 686.86 71.0795C687.525 71.3068 688.13 71.6761 688.675 72.1875C689.221 72.6932 689.655 73.3636 689.979 74.1989C690.303 75.0341 690.465 76.0625 690.465 77.2841V78.1364H680.374V76.3977H688.419C688.419 75.6591 688.272 75 687.976 74.4205C687.686 73.8409 687.272 73.3835 686.732 73.0483C686.198 72.7131 685.567 72.5455 684.84 72.5455C684.039 72.5455 683.346 72.7443 682.76 73.142C682.181 73.5341 681.735 74.0455 681.422 74.6761C681.11 75.3068 680.953 75.983 680.953 76.7045V77.8636C680.953 78.8523 681.124 79.6903 681.465 80.3778C681.811 81.0597 682.292 81.5795 682.905 81.9375C683.519 82.2898 684.232 82.4659 685.044 82.4659C685.573 82.4659 686.05 82.392 686.476 82.2443C686.908 82.0909 687.28 81.8636 687.593 81.5625C687.905 81.2557 688.147 80.875 688.317 80.4205L690.26 80.9659C690.056 81.625 689.712 82.2045 689.229 82.7045C688.746 83.1989 688.15 83.5852 687.439 83.8636C686.729 84.1364 685.931 84.2727 685.044 84.2727ZM698.843 84.2727C697.615 84.2727 696.559 83.983 695.672 83.4034C694.786 82.8239 694.104 82.0256 693.627 81.0085C693.15 79.9915 692.911 78.8295 692.911 77.5227C692.911 76.1932 693.155 75.0199 693.644 74.0028C694.138 72.9801 694.826 72.1818 695.706 71.608C696.593 71.0284 697.627 70.7386 698.809 70.7386C699.729 70.7386 700.559 70.9091 701.297 71.25C702.036 71.5909 702.641 72.0682 703.113 72.6818C703.584 73.2955 703.877 74.0114 703.99 74.8295H701.979C701.826 74.233 701.485 73.7045 700.956 73.2443C700.434 72.7784 699.729 72.5455 698.843 72.5455C698.059 72.5455 697.371 72.75 696.78 73.1591C696.195 73.5625 695.738 74.1335 695.408 74.8722C695.084 75.6051 694.922 76.4659 694.922 77.4545C694.922 78.4659 695.081 79.3466 695.4 80.0966C695.723 80.8466 696.178 81.429 696.763 81.8438C697.354 82.2585 698.047 82.4659 698.843 82.4659C699.365 82.4659 699.84 82.375 700.266 82.1932C700.692 82.0114 701.053 81.75 701.348 81.4091C701.644 81.0682 701.854 80.6591 701.979 80.1818H703.99C703.877 80.9545 703.596 81.6506 703.147 82.2699C702.703 82.8835 702.115 83.3722 701.382 83.7358C700.655 84.0938 699.809 84.2727 698.843 84.2727ZM708.942 66.5455V84H706.931V66.5455H708.942ZM716.478 84.3068C715.649 84.3068 714.896 84.1506 714.22 83.8381C713.544 83.5199 713.007 83.0625 712.609 82.4659C712.211 81.8636 712.012 81.1364 712.012 80.2841C712.012 79.5341 712.16 78.9261 712.456 78.4602C712.751 77.9886 713.146 77.6193 713.64 77.3523C714.135 77.0852 714.68 76.8864 715.277 76.7557C715.879 76.6193 716.484 76.5114 717.092 76.4318C717.887 76.3295 718.532 76.2528 719.027 76.2017C719.527 76.1449 719.89 76.0511 720.118 75.9205C720.35 75.7898 720.467 75.5625 720.467 75.2386V75.1705C720.467 74.3295 720.237 73.6761 719.777 73.2102C719.322 72.7443 718.632 72.5114 717.706 72.5114C716.745 72.5114 715.993 72.7216 715.447 73.142C714.902 73.5625 714.518 74.0114 714.297 74.4886L712.387 73.8068C712.728 73.0114 713.183 72.392 713.751 71.9489C714.325 71.5 714.95 71.1875 715.626 71.0114C716.308 70.8295 716.978 70.7386 717.637 70.7386C718.058 70.7386 718.541 70.7898 719.086 70.892C719.637 70.9886 720.169 71.1903 720.68 71.4972C721.197 71.804 721.626 72.267 721.967 72.8864C722.308 73.5057 722.478 74.3352 722.478 75.375V84H720.467V82.2273H720.365C720.228 82.5114 720.001 82.8153 719.683 83.1392C719.365 83.4631 718.941 83.7386 718.413 83.9659C717.885 84.1932 717.24 84.3068 716.478 84.3068ZM716.785 82.5C717.581 82.5 718.251 82.3438 718.797 82.0312C719.348 81.7188 719.762 81.3153 720.041 80.821C720.325 80.3267 720.467 79.8068 720.467 79.2614V77.4205C720.382 77.5227 720.194 77.6165 719.904 77.7017C719.62 77.7812 719.291 77.8523 718.916 77.9148C718.547 77.9716 718.186 78.0227 717.833 78.0682C717.487 78.108 717.206 78.142 716.99 78.1705C716.467 78.2386 715.978 78.3494 715.524 78.5028C715.075 78.6506 714.711 78.875 714.433 79.1761C714.16 79.4716 714.024 79.875 714.024 80.3864C714.024 81.0852 714.282 81.6136 714.799 81.9716C715.322 82.3239 715.984 82.5 716.785 82.5ZM726.15 84V70.9091H728.093V72.8864H728.229C728.468 72.2386 728.9 71.7131 729.525 71.3097C730.15 70.9062 730.854 70.7045 731.638 70.7045C731.786 70.7045 731.971 70.7074 732.192 70.7131C732.414 70.7187 732.581 70.7273 732.695 70.7386V72.7841C732.627 72.767 732.471 72.7415 732.226 72.7074C731.988 72.6676 731.735 72.6477 731.468 72.6477C730.831 72.6477 730.263 72.7812 729.763 73.0483C729.269 73.3097 728.877 73.6733 728.587 74.1392C728.303 74.5994 728.161 75.125 728.161 75.7159V84H726.15ZM738.931 84.3068C738.102 84.3068 737.349 84.1506 736.673 83.8381C735.997 83.5199 735.46 83.0625 735.062 82.4659C734.664 81.8636 734.466 81.1364 734.466 80.2841C734.466 79.5341 734.613 78.9261 734.909 78.4602C735.204 77.9886 735.599 77.6193 736.093 77.3523C736.588 77.0852 737.133 76.8864 737.73 76.7557C738.332 76.6193 738.937 76.5114 739.545 76.4318C740.341 76.3295 740.985 76.2528 741.48 76.2017C741.98 76.1449 742.343 76.0511 742.571 75.9205C742.804 75.7898 742.92 75.5625 742.92 75.2386V75.1705C742.92 74.3295 742.69 73.6761 742.23 73.2102C741.775 72.7443 741.085 72.5114 740.159 72.5114C739.199 72.5114 738.446 72.7216 737.9 73.142C737.355 73.5625 736.971 74.0114 736.75 74.4886L734.841 73.8068C735.181 73.0114 735.636 72.392 736.204 71.9489C736.778 71.5 737.403 71.1875 738.079 71.0114C738.761 70.8295 739.431 70.7386 740.091 70.7386C740.511 70.7386 740.994 70.7898 741.539 70.892C742.091 70.9886 742.622 71.1903 743.133 71.4972C743.65 71.804 744.079 72.267 744.42 72.8864C744.761 73.5057 744.931 74.3352 744.931 75.375V84H742.92V82.2273H742.818C742.681 82.5114 742.454 82.8153 742.136 83.1392C741.818 83.4631 741.395 83.7386 740.866 83.9659C740.338 84.1932 739.693 84.3068 738.931 84.3068ZM739.238 82.5C740.034 82.5 740.704 82.3438 741.25 82.0312C741.801 81.7188 742.216 81.3153 742.494 80.821C742.778 80.3267 742.92 79.8068 742.92 79.2614V77.4205C742.835 77.5227 742.647 77.6165 742.358 77.7017C742.074 77.7812 741.744 77.8523 741.369 77.9148C741 77.9716 740.639 78.0227 740.287 78.0682C739.94 78.108 739.659 78.142 739.443 78.1705C738.92 78.2386 738.431 78.3494 737.977 78.5028C737.528 78.6506 737.164 78.875 736.886 79.1761C736.613 79.4716 736.477 79.875 736.477 80.3864C736.477 81.0852 736.735 81.6136 737.252 81.9716C737.775 82.3239 738.437 82.5 739.238 82.5ZM754.296 70.9091V72.6136H747.512V70.9091H754.296ZM749.489 67.7727H751.5V80.25C751.5 80.8182 751.583 81.2443 751.748 81.5284C751.918 81.8068 752.134 81.9943 752.395 82.0909C752.662 82.1818 752.944 82.2273 753.239 82.2273C753.461 82.2273 753.642 82.2159 753.784 82.1932C753.926 82.1648 754.04 82.142 754.125 82.125L754.534 83.9318C754.398 83.983 754.208 84.0341 753.963 84.0852C753.719 84.142 753.409 84.1705 753.034 84.1705C752.466 84.1705 751.909 84.0483 751.364 83.804C750.824 83.5597 750.375 83.1875 750.017 82.6875C749.665 82.1875 749.489 81.5568 749.489 80.7955V67.7727ZM757.321 84V70.9091H759.333V84H757.321ZM758.344 68.7273C757.952 68.7273 757.614 68.5938 757.33 68.3267C757.051 68.0597 756.912 67.7386 756.912 67.3636C756.912 66.9886 757.051 66.6676 757.33 66.4006C757.614 66.1335 757.952 66 758.344 66C758.736 66 759.071 66.1335 759.35 66.4006C759.634 66.6676 759.776 66.9886 759.776 67.3636C759.776 67.7386 759.634 68.0597 759.35 68.3267C759.071 68.5938 758.736 68.7273 758.344 68.7273ZM768.335 84.2727C767.153 84.2727 766.116 83.9915 765.224 83.429C764.338 82.8665 763.645 82.0795 763.145 81.0682C762.65 80.0568 762.403 78.875 762.403 77.5227C762.403 76.1591 762.65 74.9687 763.145 73.9517C763.645 72.9347 764.338 72.1449 765.224 71.5824C766.116 71.0199 767.153 70.7386 768.335 70.7386C769.517 70.7386 770.551 71.0199 771.437 71.5824C772.329 72.1449 773.022 72.9347 773.517 73.9517C774.017 74.9687 774.267 76.1591 774.267 77.5227C774.267 78.875 774.017 80.0568 773.517 81.0682C773.022 82.0795 772.329 82.8665 771.437 83.429C770.551 83.9915 769.517 84.2727 768.335 84.2727ZM768.335 82.4659C769.233 82.4659 769.971 82.2358 770.551 81.7756C771.13 81.3153 771.559 80.7102 771.838 79.9602C772.116 79.2102 772.255 78.3977 772.255 77.5227C772.255 76.6477 772.116 75.8324 771.838 75.0767C771.559 74.321 771.13 73.7102 770.551 73.2443C769.971 72.7784 769.233 72.5455 768.335 72.5455C767.437 72.5455 766.699 72.7784 766.119 73.2443C765.539 73.7102 765.11 74.321 764.832 75.0767C764.554 75.8324 764.414 76.6477 764.414 77.5227C764.414 78.3977 764.554 79.2102 764.832 79.9602C765.11 80.7102 765.539 81.3153 766.119 81.7756C766.699 82.2358 767.437 82.4659 768.335 82.4659ZM779.348 76.125V84H777.337V70.9091H779.28V72.9545H779.451C779.757 72.2898 780.223 71.7557 780.848 71.3523C781.473 70.9432 782.28 70.7386 783.269 70.7386C784.155 70.7386 784.931 70.9205 785.596 71.2841C786.26 71.642 786.777 72.1875 787.147 72.9205C787.516 73.6477 787.701 74.5682 787.701 75.6818V84H785.689V75.8182C785.689 74.7898 785.422 73.9886 784.888 73.4148C784.354 72.8352 783.621 72.5455 782.689 72.5455C782.047 72.5455 781.473 72.6847 780.968 72.9631C780.468 73.2415 780.073 73.6477 779.783 74.1818C779.493 74.7159 779.348 75.3636 779.348 76.125Z" fill="black"/>
<path d="M341.965 84H336.578V66.5455H342.203C343.897 66.5455 345.346 66.8949 346.55 67.5938C347.755 68.2869 348.678 69.2841 349.32 70.5852C349.962 71.8807 350.283 73.4318 350.283 75.2386C350.283 77.0568 349.959 78.6222 349.311 79.9347C348.664 81.2415 347.721 82.2472 346.482 82.9517C345.243 83.6506 343.738 84 341.965 84ZM338.692 82.125H341.828C343.272 82.125 344.468 81.8466 345.417 81.2898C346.365 80.733 347.073 79.9403 347.539 78.9119C348.005 77.8835 348.238 76.6591 348.238 75.2386C348.238 73.8295 348.007 72.6165 347.547 71.5994C347.087 70.5767 346.4 69.7926 345.485 69.2472C344.57 68.696 343.431 68.4205 342.067 68.4205H338.692V82.125ZM359.044 84.2727C357.783 84.2727 356.695 83.9943 355.78 83.4375C354.871 82.875 354.169 82.0909 353.675 81.0852C353.186 80.0739 352.942 78.8977 352.942 77.5568C352.942 76.2159 353.186 75.0341 353.675 74.0114C354.169 72.983 354.857 72.1818 355.738 71.608C356.624 71.0284 357.658 70.7386 358.84 70.7386C359.522 70.7386 360.195 70.8523 360.86 71.0795C361.525 71.3068 362.13 71.6761 362.675 72.1875C363.221 72.6932 363.655 73.3636 363.979 74.1989C364.303 75.0341 364.465 76.0625 364.465 77.2841V78.1364H354.374V76.3977H362.419C362.419 75.6591 362.272 75 361.976 74.4205C361.686 73.8409 361.272 73.3835 360.732 73.0483C360.198 72.7131 359.567 72.5455 358.84 72.5455C358.039 72.5455 357.346 72.7443 356.76 73.142C356.181 73.5341 355.735 74.0455 355.422 74.6761C355.11 75.3068 354.953 75.983 354.953 76.7045V77.8636C354.953 78.8523 355.124 79.6903 355.465 80.3778C355.811 81.0597 356.292 81.5795 356.905 81.9375C357.519 82.2898 358.232 82.4659 359.044 82.4659C359.573 82.4659 360.05 82.392 360.476 82.2443C360.908 82.0909 361.28 81.8636 361.593 81.5625C361.905 81.2557 362.147 80.875 362.317 80.4205L364.26 80.9659C364.056 81.625 363.712 82.2045 363.229 82.7045C362.746 83.1989 362.15 83.5852 361.439 83.8636C360.729 84.1364 359.931 84.2727 359.044 84.2727ZM372.843 84.2727C371.615 84.2727 370.559 83.983 369.672 83.4034C368.786 82.8239 368.104 82.0256 367.627 81.0085C367.15 79.9915 366.911 78.8295 366.911 77.5227C366.911 76.1932 367.155 75.0199 367.644 74.0028C368.138 72.9801 368.826 72.1818 369.706 71.608C370.593 71.0284 371.627 70.7386 372.809 70.7386C373.729 70.7386 374.559 70.9091 375.297 71.25C376.036 71.5909 376.641 72.0682 377.113 72.6818C377.584 73.2955 377.877 74.0114 377.99 74.8295H375.979C375.826 74.233 375.485 73.7045 374.956 73.2443C374.434 72.7784 373.729 72.5455 372.843 72.5455C372.059 72.5455 371.371 72.75 370.78 73.1591C370.195 73.5625 369.738 74.1335 369.408 74.8722C369.084 75.6051 368.922 76.4659 368.922 77.4545C368.922 78.4659 369.081 79.3466 369.4 80.0966C369.723 80.8466 370.178 81.429 370.763 81.8438C371.354 82.2585 372.047 82.4659 372.843 82.4659C373.365 82.4659 373.84 82.375 374.266 82.1932C374.692 82.0114 375.053 81.75 375.348 81.4091C375.644 81.0682 375.854 80.6591 375.979 80.1818H377.99C377.877 80.9545 377.596 81.6506 377.147 82.2699C376.703 82.8835 376.115 83.3722 375.382 83.7358C374.655 84.0938 373.809 84.2727 372.843 84.2727ZM382.942 66.5455V84H380.931V66.5455H382.942ZM390.478 84.3068C389.649 84.3068 388.896 84.1506 388.22 83.8381C387.544 83.5199 387.007 83.0625 386.609 82.4659C386.211 81.8636 386.012 81.1364 386.012 80.2841C386.012 79.5341 386.16 78.9261 386.456 78.4602C386.751 77.9886 387.146 77.6193 387.64 77.3523C388.135 77.0852 388.68 76.8864 389.277 76.7557C389.879 76.6193 390.484 76.5114 391.092 76.4318C391.887 76.3295 392.532 76.2528 393.027 76.2017C393.527 76.1449 393.89 76.0511 394.118 75.9205C394.35 75.7898 394.467 75.5625 394.467 75.2386V75.1705C394.467 74.3295 394.237 73.6761 393.777 73.2102C393.322 72.7443 392.632 72.5114 391.706 72.5114C390.745 72.5114 389.993 72.7216 389.447 73.142C388.902 73.5625 388.518 74.0114 388.297 74.4886L386.387 73.8068C386.728 73.0114 387.183 72.392 387.751 71.9489C388.325 71.5 388.95 71.1875 389.626 71.0114C390.308 70.8295 390.978 70.7386 391.637 70.7386C392.058 70.7386 392.541 70.7898 393.086 70.892C393.637 70.9886 394.169 71.1903 394.68 71.4972C395.197 71.804 395.626 72.267 395.967 72.8864C396.308 73.5057 396.478 74.3352 396.478 75.375V84H394.467V82.2273H394.365C394.228 82.5114 394.001 82.8153 393.683 83.1392C393.365 83.4631 392.941 83.7386 392.413 83.9659C391.885 84.1932 391.24 84.3068 390.478 84.3068ZM390.785 82.5C391.581 82.5 392.251 82.3438 392.797 82.0312C393.348 81.7188 393.762 81.3153 394.041 80.821C394.325 80.3267 394.467 79.8068 394.467 79.2614V77.4205C394.382 77.5227 394.194 77.6165 393.904 77.7017C393.62 77.7812 393.291 77.8523 392.916 77.9148C392.547 77.9716 392.186 78.0227 391.833 78.0682C391.487 78.108 391.206 78.142 390.99 78.1705C390.467 78.2386 389.978 78.3494 389.524 78.5028C389.075 78.6506 388.711 78.875 388.433 79.1761C388.16 79.4716 388.024 79.875 388.024 80.3864C388.024 81.0852 388.282 81.6136 388.799 81.9716C389.322 82.3239 389.984 82.5 390.785 82.5ZM400.15 84V70.9091H402.093V72.8864H402.229C402.468 72.2386 402.9 71.7131 403.525 71.3097C404.15 70.9062 404.854 70.7045 405.638 70.7045C405.786 70.7045 405.971 70.7074 406.192 70.7131C406.414 70.7187 406.581 70.7273 406.695 70.7386V72.7841C406.627 72.767 406.471 72.7415 406.226 72.7074C405.988 72.6676 405.735 72.6477 405.468 72.6477C404.831 72.6477 404.263 72.7812 403.763 73.0483C403.269 73.3097 402.877 73.6733 402.587 74.1392C402.303 74.5994 402.161 75.125 402.161 75.7159V84H400.15ZM412.931 84.3068C412.102 84.3068 411.349 84.1506 410.673 83.8381C409.997 83.5199 409.46 83.0625 409.062 82.4659C408.664 81.8636 408.466 81.1364 408.466 80.2841C408.466 79.5341 408.613 78.9261 408.909 78.4602C409.204 77.9886 409.599 77.6193 410.093 77.3523C410.588 77.0852 411.133 76.8864 411.73 76.7557C412.332 76.6193 412.937 76.5114 413.545 76.4318C414.341 76.3295 414.985 76.2528 415.48 76.2017C415.98 76.1449 416.343 76.0511 416.571 75.9205C416.804 75.7898 416.92 75.5625 416.92 75.2386V75.1705C416.92 74.3295 416.69 73.6761 416.23 73.2102C415.775 72.7443 415.085 72.5114 414.159 72.5114C413.199 72.5114 412.446 72.7216 411.9 73.142C411.355 73.5625 410.971 74.0114 410.75 74.4886L408.841 73.8068C409.181 73.0114 409.636 72.392 410.204 71.9489C410.778 71.5 411.403 71.1875 412.079 71.0114C412.761 70.8295 413.431 70.7386 414.091 70.7386C414.511 70.7386 414.994 70.7898 415.539 70.892C416.091 70.9886 416.622 71.1903 417.133 71.4972C417.65 71.804 418.079 72.267 418.42 72.8864C418.761 73.5057 418.931 74.3352 418.931 75.375V84H416.92V82.2273H416.818C416.681 82.5114 416.454 82.8153 416.136 83.1392C415.818 83.4631 415.395 83.7386 414.866 83.9659C414.338 84.1932 413.693 84.3068 412.931 84.3068ZM413.238 82.5C414.034 82.5 414.704 82.3438 415.25 82.0312C415.801 81.7188 416.216 81.3153 416.494 80.821C416.778 80.3267 416.92 79.8068 416.92 79.2614V77.4205C416.835 77.5227 416.647 77.6165 416.358 77.7017C416.074 77.7812 415.744 77.8523 415.369 77.9148C415 77.9716 414.639 78.0227 414.287 78.0682C413.94 78.108 413.659 78.142 413.443 78.1705C412.92 78.2386 412.431 78.3494 411.977 78.5028C411.528 78.6506 411.164 78.875 410.886 79.1761C410.613 79.4716 410.477 79.875 410.477 80.3864C410.477 81.0852 410.735 81.6136 411.252 81.9716C411.775 82.3239 412.437 82.5 413.238 82.5ZM428.296 70.9091V72.6136H421.512V70.9091H428.296ZM423.489 67.7727H425.5V80.25C425.5 80.8182 425.583 81.2443 425.748 81.5284C425.918 81.8068 426.134 81.9943 426.395 82.0909C426.662 82.1818 426.944 82.2273 427.239 82.2273C427.461 82.2273 427.642 82.2159 427.784 82.1932C427.926 82.1648 428.04 82.142 428.125 82.125L428.534 83.9318C428.398 83.983 428.208 84.0341 427.963 84.0852C427.719 84.142 427.409 84.1705 427.034 84.1705C426.466 84.1705 425.909 84.0483 425.364 83.804C424.824 83.5597 424.375 83.1875 424.017 82.6875C423.665 82.1875 423.489 81.5568 423.489 80.7955V67.7727ZM431.321 84V70.9091H433.333V84H431.321ZM432.344 68.7273C431.952 68.7273 431.614 68.5938 431.33 68.3267C431.051 68.0597 430.912 67.7386 430.912 67.3636C430.912 66.9886 431.051 66.6676 431.33 66.4006C431.614 66.1335 431.952 66 432.344 66C432.736 66 433.071 66.1335 433.35 66.4006C433.634 66.6676 433.776 66.9886 433.776 67.3636C433.776 67.7386 433.634 68.0597 433.35 68.3267C433.071 68.5938 432.736 68.7273 432.344 68.7273ZM442.335 84.2727C441.153 84.2727 440.116 83.9915 439.224 83.429C438.338 82.8665 437.645 82.0795 437.145 81.0682C436.65 80.0568 436.403 78.875 436.403 77.5227C436.403 76.1591 436.65 74.9687 437.145 73.9517C437.645 72.9347 438.338 72.1449 439.224 71.5824C440.116 71.0199 441.153 70.7386 442.335 70.7386C443.517 70.7386 444.551 71.0199 445.437 71.5824C446.329 72.1449 447.022 72.9347 447.517 73.9517C448.017 74.9687 448.267 76.1591 448.267 77.5227C448.267 78.875 448.017 80.0568 447.517 81.0682C447.022 82.0795 446.329 82.8665 445.437 83.429C444.551 83.9915 443.517 84.2727 442.335 84.2727ZM442.335 82.4659C443.233 82.4659 443.971 82.2358 444.551 81.7756C445.13 81.3153 445.559 80.7102 445.838 79.9602C446.116 79.2102 446.255 78.3977 446.255 77.5227C446.255 76.6477 446.116 75.8324 445.838 75.0767C445.559 74.321 445.13 73.7102 444.551 73.2443C443.971 72.7784 443.233 72.5455 442.335 72.5455C441.437 72.5455 440.699 72.7784 440.119 73.2443C439.539 73.7102 439.11 74.321 438.832 75.0767C438.554 75.8324 438.414 76.6477 438.414 77.5227C438.414 78.3977 438.554 79.2102 438.832 79.9602C439.11 80.7102 439.539 81.3153 440.119 81.7756C440.699 82.2358 441.437 82.4659 442.335 82.4659ZM453.348 76.125V84H451.337V70.9091H453.28V72.9545H453.451C453.757 72.2898 454.223 71.7557 454.848 71.3523C455.473 70.9432 456.28 70.7386 457.269 70.7386C458.155 70.7386 458.931 70.9205 459.596 71.2841C460.26 71.642 460.777 72.1875 461.147 72.9205C461.516 73.6477 461.701 74.5682 461.701 75.6818V84H459.689V75.8182C459.689 74.7898 459.422 73.9886 458.888 73.4148C458.354 72.8352 457.621 72.5455 456.689 72.5455C456.047 72.5455 455.473 72.6847 454.968 72.9631C454.468 73.2415 454.073 73.6477 453.783 74.1818C453.493 74.7159 453.348 75.3636 453.348 76.125Z" fill="black"/>
</svg>
